<svg width="50" height="62" viewBox="0 0 50 62" fill="none" xmlns="http://www.w3.org/2000/svg">
<path d="M41.3695 51.9176V55.3407C41.3695 57.9145 39.283 60.0009 36.7093 60.0009H6.418C3.84425 60.0009 1.75781 57.9145 1.75781 55.3407V12.8164C1.75781 10.2427 3.84425 8.15625 6.41801 8.15625H9.91315" stroke="white" stroke-width="3.49515"/>
<path d="M44.4262 54.03H14.7222C12.0689 54.0277 9.91633 51.8751 9.91406 49.2219V4.80909C9.91634 2.15586 12.0689 0.00326064 14.7222 0.000988799H37.9323C38.046 -0.00356188 38.1598 0.00781541 38.2713 0.03057L38.2759 0.0328459H38.2827L38.2941 0.0373966V0.0351212C38.6445 0.103387 38.9676 0.271772 39.2248 0.522076L39.2293 0.526628L48.7047 10.006L48.7138 10.0129L48.7229 10.022L48.7206 10.0197C48.9527 10.2586 49.1142 10.5567 49.1893 10.8799V10.8844C49.3259 11.319 49.1871 48.7619 49.2348 49.2215C49.2326 51.8747 47.08 54.0273 44.4267 54.0296L44.4262 54.03ZM14.7222 3.64165C14.0782 3.64165 13.5548 4.16501 13.5548 4.80897V49.2218C13.5548 49.8658 14.0782 50.3891 14.7222 50.3891H44.4262C45.0702 50.3891 45.5936 49.8657 45.5936 49.2218V13.1076H37.9479C37.4655 13.1076 37.0013 12.9165 36.66 12.5751C36.3187 12.2338 36.1276 11.7696 36.1276 11.2872V3.64161L14.7222 3.64165ZM39.7684 9.46689H43.02L39.7684 6.21524V9.46689ZM40.624 45.224H18.5242C17.5298 45.2103 16.7311 44.4002 16.7311 43.4036C16.7311 42.4092 17.5298 41.5991 18.5242 41.5832H40.624C41.6184 41.5991 42.4171 42.4092 42.4171 43.4036C42.4171 44.4002 41.6184 45.2104 40.624 45.224ZM40.624 37.1939H18.5242C17.5298 37.1802 16.7311 36.3701 16.7311 35.3735C16.7311 34.3791 17.5298 33.569 18.5242 33.5531H40.624C41.6184 33.569 42.4171 34.3791 42.4171 35.3735C42.4171 36.3701 41.6184 37.1803 40.624 37.1939ZM40.624 29.1661H18.5242C17.5298 29.1525 16.7311 28.3424 16.7311 27.3457C16.7311 26.3514 17.5298 25.5412 18.5242 25.5253H40.624C41.6184 25.5413 42.4171 26.3514 42.4171 27.3457C42.4171 28.3424 41.6184 29.1525 40.624 29.1661ZM40.624 21.136H18.5242C17.5298 21.1224 16.7311 20.3123 16.7311 19.3156C16.7311 18.3213 17.5298 17.5111 18.5242 17.4952H40.624C41.6184 17.5112 42.4171 18.3213 42.4171 19.3156C42.4171 20.3123 41.6184 21.1224 40.624 21.136ZM31.338 13.1083H18.5248C17.5304 13.0946 16.7294 12.2845 16.7294 11.2879C16.7294 10.2935 17.5304 9.48111 18.5248 9.46747H31.338C32.3323 9.48113 33.131 10.2935 33.131 11.2879C33.131 12.2845 32.3323 13.0946 31.338 13.1083Z" fill="white"/>
</svg>
