<svg width="18" height="21" viewBox="0 0 18 21" fill="none" xmlns="http://www.w3.org/2000/svg">
<path fill-rule="evenodd" clip-rule="evenodd" d="M14.803 0.193348C16.0905 0.548537 17.0655 1.5374 17.3237 2.74804C17.3747 2.99317 17.3984 5.25938 17.3984 10.152C17.3967 17.8094 17.412 17.4976 17.0163 18.2947C16.9092 18.5115 16.6426 18.855 16.3844 19.1101C15.3669 20.1106 13.9265 20.3758 12.605 19.8055C12.4181 19.7238 10.3611 18.2563 8.03576 16.5454L3.80965 13.4337V16.1185C3.80965 17.711 3.78077 18.9017 3.74001 19.0451C3.55826 19.6871 3.06736 20.0406 2.2877 20.089C1.46388 20.1407 0.923731 19.9072 0.616285 19.3669L0.446424 19.0701L0.412451 14.5677C0.393766 12.0897 0.393766 8.05254 0.412451 5.59623L0.446424 1.12718L0.600996 0.843694C0.881264 0.326752 1.55221 0.0432679 2.32507 0.111638C3.06396 0.17834 3.57015 0.550205 3.74001 1.15219C3.78077 1.2956 3.80965 2.48624 3.80965 4.07875V6.76352L8.05954 3.63518C11.7404 0.925404 12.3757 0.481835 12.7986 0.328419C13.4135 0.103299 14.273 0.0466026 14.803 0.193348ZM4.97149 10.0986C4.97149 10.117 7.00301 11.6261 9.48637 13.4504L14.0012 16.7689V3.42841L9.48637 6.74684C7.00301 8.57115 4.97149 10.0803 4.97149 10.0986Z" fill="white"/>
</svg>
