<?xml version="1.0" encoding="UTF-8"?>
<svg width="122px" height="28px" viewBox="0 0 122 28" version="1.1" xmlns="http://www.w3.org/2000/svg" xmlns:xlink="http://www.w3.org/1999/xlink">
    <title>819E8A39-14FF-42DB-A7FF-8DC2AA540302</title>
    <defs>
        <polygon id="path-1" points="0.0696791946 0.226805369 8.78981342 0.226805369 8.78981342 22.0311121 0.0696791946 22.0311121"></polygon>
        <polygon id="path-3" points="0 27.2028477 121.748221 27.2028477 121.748221 0.409518792 0 0.409518792"></polygon>
    </defs>
    <g id="Page-1" stroke="none" stroke-width="1" fill="none" fill-rule="evenodd">
        <g id="1-Payment-Options" transform="translate(-180.000000, -18.000000)">
            <g id="Group-17" transform="translate(180.000000, 18.000000)">
                <path d="M12.6421886,20.4659094 C9.89309463,21.6900034 6.67196711,20.4544463 5.44746376,17.7053523 C4.2229604,14.9562584 5.45892685,11.7351309 8.20761141,10.5106275 C9.76536309,9.81670134 11.5576987,9.8920302 13.0515846,10.7140973 C10.2914369,12.2071644 9.26426242,15.6550973 10.7573295,18.4156544 C11.2056181,19.2450906 11.8536919,19.9492517 12.6421886,20.4659094" id="Fill-1" fill="#FFFFFF"></path>
                <g id="Group-5" transform="translate(11.872483, 0.182713)">
                    <mask id="mask-2" fill="white">
                        <use xlink:href="#path-1"></use>
                    </mask>
                    <g id="Clip-4"></g>
                    <path d="M0.0696791946,22.0311121 L2.52605503,22.0311121 C5.98545101,22.0311121 8.78981342,19.6361456 8.78981342,16.1767497 L8.78981342,0.22668255 C5.71484027,0.22668255 3.22202819,2.71949463 3.22202819,5.79446779 L3.22202819,16.9832597 C3.22202819,16.9832597 3.59867248,20.1151389 0.0696791946,22.0311121" id="Fill-3" fill="#FFFFFF" mask="url(#mask-2)"></path>
                </g>
                <path d="M23.7778409,7.77442953 C24.3657336,8.85032215 24.7804517,10.0121879 25.0060289,11.2174497 C26.2202973,17.6105772 22.022351,23.7773087 15.6296329,24.9915772 C9.23650537,26.206255 3.06936443,22.0083087 1.85509597,15.6155906 C0.640827517,9.22246309 4.83877383,3.05532215 11.2314919,1.84105369 C12.1575456,1.66501342 13.1012034,1.60073826 14.0424047,1.64986577 C7.00284094,0.967402685 0.742767114,6.12087919 0.0607134228,13.160443 C-0.621749664,20.2000067 4.53172685,26.4596711 11.5712906,27.1421342 C18.6108544,27.8245973 24.8705188,22.6711208 25.5529819,15.631557 C25.8182705,12.8951544 25.1955792,10.1460604 23.7778409,7.79080537 L23.7778409,7.77442953 Z" id="Fill-6" fill="#FFFFFF"></path>
                <path d="M39.3103242,18.0051121 C39.7696664,17.4340047 40.0054785,16.7151054 39.9735456,15.9831054 C40.0136664,15.2416893 39.777445,14.512555 39.3103242,13.9357161 C38.8775926,13.4276557 38.2372973,13.1443537 37.5703913,13.1660517 C36.8985725,13.1459913 36.2537738,13.4321591 35.8181765,13.943904 C35.3506463,14.5113268 35.1099215,15.2322732 35.1426732,15.9667295 C35.1107403,16.7007765 35.3514651,17.420904 35.8181765,17.9887362 C36.2537738,18.5004812 36.8985725,18.786649 37.5703913,18.7665886 C38.2393443,18.7862396 38.8804584,18.4980248 39.3103242,17.9846423 L39.3103242,18.0051121 Z M43.6662973,6.13262886 L43.6662973,21.5177295 L39.9817336,21.5177295 L39.9817336,20.0684678 C39.612049,20.5785752 39.1207738,20.9879711 38.5529416,21.2598101 C37.9605456,21.5390181 37.3120624,21.6794409 36.6574383,21.669206 C35.6949483,21.6900852 34.7467872,21.4374879 33.9226732,20.9404812 C33.126398,20.4487966 32.4881497,19.7376758 32.0844852,18.8935013 C31.6353779,17.9453403 31.412257,16.9050651 31.4335456,15.8557832 C31.4106195,14.8232866 31.6308745,13.7993872 32.0762973,12.8671926 C32.473002,12.0447161 33.0985591,11.3536557 33.8776396,10.8775282 C34.6939752,10.3964879 35.6282168,10.1524879 36.5755591,10.1733671 C37.2436933,10.1623134 37.9056866,10.3023268 38.512002,10.5827631 C39.0839282,10.8595148 39.5838007,11.2644074 39.9735456,11.7659174 L39.9735456,6.13262886 L43.6662973,6.13262886 Z" id="Fill-8" fill="#FFFFFF"></path>
                <mask id="mask-4" fill="white">
                    <use xlink:href="#path-3"></use>
                </mask>
                <g id="Clip-11"></g>
                <path d="M46.5892617,21.5179752 L50.2738255,21.5179752 L50.2738255,10.3005255 L46.5892617,10.3005255 L46.5892617,21.5179752 Z M49.7907383,5.69072685 C50.1620604,6.06655235 50.3602081,6.5795255 50.3393289,7.10723691 C50.3573423,7.63290134 50.1591946,8.14382752 49.7907383,8.51924362 C49.0087919,9.26761946 47.7765101,9.26761946 46.9945638,8.51924362 C46.6248792,8.14423691 46.425094,7.63372013 46.4418792,7.10723691 C46.4218188,6.57870671 46.6220134,6.06573356 46.9945638,5.69072685 C47.7814228,4.95463289 49.0038792,4.95463289 49.7907383,5.69072685 L49.7907383,5.69072685 Z" id="Fill-10" fill="#FFFFFF" mask="url(#mask-4)"></path>
                <path d="M70.9731315,11.3156638 C71.7309235,12.1733483 72.124353,13.2922275 72.0703128,14.4352611 L72.0703128,21.5178114 L68.385749,21.5178114 L68.385749,15.5078785 C68.4156349,14.9605161 68.2371383,14.4221604 67.8862859,14.0013013 C67.5391181,13.6299792 67.0466148,13.4297846 66.5393732,13.4527107 C65.9424738,13.4428852 65.3734134,13.7069456 64.9955409,14.1691537 C64.5963799,14.6866302 64.3933195,15.3297913 64.422796,15.9827779 L64.422796,21.5178114 L60.7382322,21.5178114 L60.7382322,15.5078785 C60.7718027,14.9621537 60.5978094,14.4242074 60.251051,14.0013013 C59.9038832,13.6299792 59.4113799,13.4297846 58.9041383,13.4527107 C58.3039638,13.4453416 57.732447,13.7085832 57.3484336,14.1691537 C56.9443597,14.6849926 56.7380242,15.3285631 56.7670913,15.9827779 L56.7670913,21.5178114 L53.0825275,21.5178114 L53.0825275,10.3003617 L56.7670913,10.3003617 L56.7670913,12.1467376 C57.1257221,11.5256839 57.6464738,11.0131201 58.2732591,10.6647242 C58.9332054,10.3142812 59.6721651,10.1394691 60.4189034,10.1570732 C61.248749,10.1337376 62.0659034,10.3650463 62.7602389,10.8202946 C63.4140443,11.2657174 63.9024537,11.9150195 64.1480913,12.6666705 C64.4584134,11.8957779 64.9988161,11.2395161 65.6956081,10.787543 C66.3985409,10.3613617 67.2079168,10.1427443 68.0295745,10.1570732 C69.1316685,10.1026235 70.2038765,10.5243013 70.9731315,11.3156638" id="Fill-12" fill="#FFFFFF" mask="url(#mask-4)"></path>
                <path d="M85.5270765,10.3003617 L85.5270765,21.5178114 L81.8425128,21.5178114 L81.8425128,19.6959993 C81.0810362,20.9954221 79.8856,21.6586436 78.256204,21.6856638 C77.1610698,21.7331537 76.0990966,21.3061537 75.3413047,20.5147913 C74.5880161,19.6538315 74.1990899,18.5337242 74.2564054,17.3911 L74.2564054,10.3003617 L77.9409691,10.3003617 L77.9409691,16.3348584 C77.9102644,16.8764893 78.0838483,17.4099322 78.4281503,17.8291537 C78.7663114,18.1943349 79.2493987,18.3904356 79.7464054,18.3654624 C80.3396201,18.3785631 80.9054054,18.1153215 81.2775463,17.6531134 C81.6709758,17.1331805 81.8695329,16.4912477 81.8384188,15.8394893 L81.8384188,10.3003617 L85.5270765,10.3003617 Z" id="Fill-13" fill="#FFFFFF" mask="url(#mask-4)"></path>
                <path d="M92.2657342,12.7075691 C91.9979893,12.6944685 91.7314725,12.7554685 91.4960698,12.8836094 C91.308157,12.9916899 91.1963919,13.1951597 91.2053987,13.4117302 C91.2168617,13.6913477 91.399043,13.9353477 91.6639221,14.0258242 C92.1302242,14.2362537 92.6153584,14.4020591 93.1127745,14.5211933 C93.7931906,14.7144282 94.4617342,14.9469651 95.1151302,15.2171664 C95.6506201,15.4484752 96.1234725,15.8034215 96.4947946,16.2533477 C96.8972309,16.7691866 97.1019289,17.412757 97.072043,18.0665624 C97.1117544,19.1199383 96.6176134,20.1221396 95.7578819,20.7317302 C94.7474926,21.4137839 93.5446872,21.7527638 92.3267342,21.6979047 C91.3986336,21.7003611 90.4754456,21.5623946 89.5882846,21.2885087 C88.7498416,21.0314081 87.9650295,20.6248779 87.2711034,20.0889785 L88.429694,17.7103879 C89.0454255,18.1431195 89.7172443,18.4890591 90.4275463,18.7379718 C91.0629289,18.9684617 91.7327007,19.0916899 92.4090228,19.1027436 C92.7054255,19.1150255 93.0010094,19.0540255 93.2687544,18.926294 C93.466902,18.8349987 93.592996,18.636851 93.5921772,18.4190523 C93.5839893,18.1287906 93.3985329,17.8737369 93.1254658,17.7758913 C92.654251,17.5658711 92.1650228,17.3988376 91.6639221,17.2768376 C90.9994725,17.088106 90.3485329,16.8555691 89.7151973,16.580455 C89.1956738,16.3475087 88.7375597,15.9970658 88.3764725,15.5569651 C87.9793584,15.0489047 87.7775262,14.4159785 87.8070027,13.7719987 C87.7640161,12.7247638 88.246694,11.7250188 89.0929154,11.1068309 C90.0623651,10.4305087 91.2279154,10.0919383 92.4090228,10.1447503 C93.2253584,10.1451597 94.0380094,10.2565154 94.8244591,10.4763611 C95.6154121,10.6953879 96.3715664,11.0233141 97.072043,11.4507235 L95.843855,13.8538779 C94.3835396,13.089945 93.1909691,12.7075691 92.2657342,12.7075691" id="Fill-14" fill="#FFFFFF" mask="url(#mask-4)"></path>
                <path d="M104.101413,13.2071141 C103.47299,13.1911477 102.874044,13.4715839 102.484299,13.9644966 C102.051977,14.5245503 101.831721,15.2188859 101.861607,15.9255034 C101.828037,16.6349866 102.048701,17.3334161 102.484299,17.894698 C102.8765,18.3831074 103.475446,18.6586309 104.101413,18.6397987 C105.021735,18.6987517 105.888017,18.2001074 106.299869,17.3747651 L109.018258,18.9304698 C108.577748,19.7852886 107.880138,20.4812617 107.0245,20.9201342 C106.063238,21.4097718 104.995534,21.652953 103.917185,21.6283893 C102.863809,21.6504966 101.821896,21.406906 100.887245,20.9201342 C100.034883,20.4718456 99.3331779,19.7828322 98.8693322,18.9386577 C98.3760101,18.0228389 98.1291443,16.9944362 98.1528893,15.9541611 C98.1307819,14.8962819 98.380104,13.8506846 98.8771107,12.916443 C99.3434128,12.0472953 100.055352,11.3353557 100.924091,10.8694631 C102.817956,9.92130201 105.046708,9.91393289 106.946305,10.8489933 C107.80399,11.289094 108.515111,11.9691007 108.993285,12.805906 L106.320339,14.3616107 C105.83848,13.6091409 104.993896,13.1698591 104.101413,13.2071141" id="Fill-15" fill="#FFFFFF" mask="url(#mask-4)"></path>
                <path d="M113.88176,13.931745 C113.417505,14.4954832 113.179646,15.2119262 113.214444,15.9418792 C113.173914,16.6832953 113.411773,17.4136577 113.88176,17.9888591 C114.314082,18.4977383 114.954787,18.7810403 115.621693,18.7585235 C116.295149,18.7834966 116.943632,18.500604 117.382095,17.9888591 C117.850444,17.4124295 118.087894,16.6832953 118.049411,15.9418792 C118.083391,15.2111074 117.842666,14.4938456 117.373907,13.931745 C116.935444,13.4245034 116.291874,13.1416107 115.621693,13.1620805 C114.954787,13.1395638 114.314082,13.4228658 113.88176,13.931745 L113.88176,13.931745 Z M118.823169,10.8940268 C119.720565,11.3431342 120.46976,12.040745 120.980686,12.9041611 C121.503894,13.8146577 121.768773,14.8512483 121.746256,15.9009396 C121.774095,16.9645503 121.509216,18.0150604 120.980686,18.9386577 C120.468532,19.8008456 119.719746,20.4988658 118.823169,20.9487919 C116.787243,21.9039128 114.431579,21.9039128 112.395652,20.9487919 C111.501122,20.5005034 110.755612,19.8020738 110.250417,18.9386577 C109.731713,18.0191544 109.470518,16.9768322 109.493035,15.9214094 C109.472156,14.8725369 109.73335,13.8375839 110.250417,12.9246309 C110.754384,12.0599866 111.500303,11.361557 112.395652,10.9144966 C114.431579,9.95896644 116.787243,9.95896644 118.823169,10.9144966 L118.823169,10.8940268 Z" id="Fill-16" fill="#FFFFFF" mask="url(#mask-4)"></path>
            </g>
        </g>
    </g>
</svg>