<svg width="15" height="16" viewBox="0 0 15 16" fill="none" xmlns="http://www.w3.org/2000/svg">
<path fill-rule="evenodd" clip-rule="evenodd" d="M5.97828 5.93467V12.9714C5.97828 14.3126 4.73692 15.4013 3.20789 15.4013C1.67886 15.4013 0.4375 14.3125 0.4375 12.9714C0.4375 11.6303 1.67886 10.5415 3.20789 10.5415C3.48763 10.5415 3.75751 10.5775 4.01221 10.6457V3.41053C4.01221 3.02564 4.30355 2.68779 4.72539 2.58198L13.3049 0.431785C13.6016 0.357318 13.9207 0.409053 14.1673 0.572099C14.4131 0.735144 14.5579 0.989897 14.5579 1.26112V9.83581C14.5579 11.177 13.3165 12.2657 11.7875 12.2657C10.2585 12.2657 9.0171 11.1769 9.0171 9.83581C9.0171 8.49468 10.2585 7.40588 11.7875 7.40588C12.0672 7.40588 12.3371 7.44194 12.5918 7.51014V4.19444L5.97828 5.93467Z" fill="black"/>
</svg>
