<svg width="18" height="21" viewBox="0 0 18 21" fill="none" xmlns="http://www.w3.org/2000/svg">
<path fill-rule="evenodd" clip-rule="evenodd" d="M3.19702 0.193348C1.90948 0.548537 0.934488 1.5374 0.676301 2.74804C0.625343 2.99317 0.601562 5.25938 0.601562 10.152C0.603261 17.8094 0.587974 17.4976 0.983747 18.2947C1.09076 18.5115 1.35744 18.855 1.61563 19.1101C2.63309 20.1106 4.0735 20.3758 5.39501 19.8055C5.58185 19.7238 7.63886 18.2563 9.96424 16.5454L14.1904 13.4337V16.1185C14.1904 17.711 14.2192 18.9017 14.26 19.0451C14.4417 19.6871 14.9326 20.0406 15.7123 20.089C16.5361 20.1407 17.0763 19.9072 17.3837 19.3669L17.5536 19.0701L17.5875 14.5677C17.6062 12.0897 17.6062 8.05254 17.5875 5.59623L17.5536 1.12718L17.399 0.843694C17.1187 0.326752 16.4478 0.0432679 15.6749 0.111638C14.936 0.17834 14.4299 0.550205 14.26 1.15219C14.2192 1.2956 14.1904 2.48624 14.1904 4.07875V6.76352L9.94046 3.63518C6.25959 0.925404 5.62432 0.481835 5.20137 0.328419C4.58648 0.103299 3.72698 0.0466026 3.19702 0.193348ZM13.0285 10.0986C13.0285 10.117 10.997 11.6261 8.51363 13.4504L3.99876 16.7689V3.42841L8.51363 6.74684C10.997 8.57115 13.0285 10.0803 13.0285 10.0986Z" fill="white"/>
</svg>
