<svg width="22" height="22" viewBox="0 0 22 22" fill="none" xmlns="http://www.w3.org/2000/svg">
<rect x="0.867188" y="0.835938" width="20.5333" height="20.53" rx="10.265" fill="#FFB038"/>
<path d="M6.109 7.85471C7.37208 7.85458 8.53837 8.48258 9.2371 9.5052C9.40488 9.75064 9.74003 9.81377 9.98573 9.646C10.2313 9.47822 10.2944 9.14294 10.1267 8.8975C9.22872 7.58347 7.73133 6.77734 6.109 6.77734C5.81143 6.77734 5.57031 7.01846 5.57031 7.31603C5.57031 7.61346 5.81143 7.85471 6.109 7.85471Z" fill="black"/>
<path d="M16.7025 14.301C16.7025 14.2281 16.6877 14.1576 16.6603 14.0924L16.5786 13.9706L16.5448 13.92L14.716 12.0914C14.5055 11.881 14.1644 11.881 13.9541 12.0916C13.7438 12.302 13.7438 12.6431 13.9542 12.8534L14.8611 13.76C13.8075 13.7472 12.8247 13.3 12.1289 12.5504C11.9264 12.3323 11.5856 12.3194 11.3676 12.5219C11.1495 12.7243 11.1368 13.0652 11.3391 13.2833C12.2364 14.2501 13.5059 14.8257 14.8655 14.8375L13.9542 15.7488C13.7438 15.959 13.7438 16.3003 13.9541 16.5106C14.1644 16.7211 14.5056 16.7211 14.7161 16.5108L16.5448 14.6819L16.5671 14.6488L16.6605 14.5094C16.6877 14.4442 16.7025 14.3739 16.7025 14.301Z" fill="black"/>
<path d="M16.5788 7.57216L16.545 7.52161L14.7163 5.69299C14.5058 5.48252 14.1647 5.48252 13.9544 5.69312C13.7441 5.90359 13.7441 6.24464 13.9545 6.45498L14.8668 7.36706C13.0113 7.38252 11.324 8.44967 10.52 10.1248L9.52498 12.1977C8.89448 13.5116 7.56618 14.3474 6.109 14.3474C5.81143 14.3474 5.57031 14.5885 5.57031 14.8861C5.57031 15.1835 5.81143 15.4248 6.109 15.4248C7.98057 15.4248 9.68633 14.3513 10.4963 12.664L11.4912 10.5912C12.1149 9.29155 13.4217 8.46276 14.8603 8.44482L13.9545 9.35061C13.7441 9.56082 13.7441 9.90213 13.9544 10.1125C14.1647 10.3229 14.5059 10.3229 14.7164 10.1126L16.5451 8.28373L16.5674 8.25059L16.6608 8.11124C16.6882 8.04601 16.703 7.97568 16.703 7.90286C16.703 7.82991 16.6882 7.75945 16.6608 7.69423L16.5788 7.57216Z" fill="black"/>
</svg>
